<svg width="19" height="19" viewBox="0 0 19 19" fill="none" xmlns="http://www.w3.org/2000/svg">
<g id="linkedin-svgrepo-com 1" clip-path="url(#clip0_193_319)">
<g id="7935ec95c421cee6d86eb22ecd125aef">
<path id="Vector" fill-rule="evenodd" clip-rule="evenodd" d="M4.32339 18.5628V6.33285H0.258838V18.5628H4.32339V18.5628ZM2.29154 4.66367C3.70849 4.66367 4.59114 3.72376 4.59114 2.55018C4.56434 1.35051 3.70849 0.437134 2.31811 0.437134C0.927512 0.437171 0.0185547 1.35054 0.0185547 2.55022C0.0185547 3.7238 0.900719 4.66371 2.26479 4.66371L2.29154 4.66367ZM6.57296 18.5628C6.57296 18.5628 6.62629 7.48034 6.57296 6.33289H10.6381V8.10649H10.6112C11.1457 7.2719 12.1087 6.0457 14.3013 6.0457C16.9764 6.0457 18.9814 7.79366 18.9814 11.5502V18.5628H14.9169V12.0202C14.9169 10.3762 14.3288 9.25436 12.8574 9.25436C11.7347 9.25436 11.0656 10.0106 10.7718 10.7417C10.6643 11.0019 10.6381 11.3674 10.6381 11.7329V18.5628H6.57296Z" fill="white"/>
</g>
</g>
<defs>
<clipPath id="clip0_193_319">
<rect width="19" height="19" fill="white"/>
</clipPath>
</defs>
</svg>
