<svg width="43" height="27" viewBox="0 0 43 27" fill="none" xmlns="http://www.w3.org/2000/svg">
<g id="Modo_de_aislamiento" clip-path="url(#clip0_219_236)">
<path id="Vector" d="M29.6274 27H13.3726C6.00048 27 0 20.9435 0 13.4974C0 6.05128 6.00048 0 13.3726 0H29.6222C36.9995 0 42.9949 6.05646 42.9949 13.4974C42.9949 20.9384 36.9944 26.9948 29.6222 26.9948L29.6274 27ZM13.3726 1.03188C6.56045 1.03188 1.02234 6.62685 1.02234 13.4974C1.02234 20.368 6.56559 25.9681 13.3778 25.9681H29.6274C36.4395 25.9681 41.9828 20.3732 41.9828 13.4974C41.9828 6.62166 36.4395 1.03188 29.6274 1.03188H13.3726Z" fill="#FF9896"/>
<path id="Vector_2" d="M10.8652 13.3937C10.9988 12.9789 11.3122 12.8959 11.6975 12.8959C19.2649 12.8959 22.1521 12.8959 29.7246 12.8959H30.1048C29.9969 12.7766 29.9301 12.704 29.8633 12.6315C28.3632 11.1173 26.8682 9.60322 25.3681 8.0891C25.3219 8.04244 25.2705 7.99577 25.2243 7.94391C24.9828 7.66909 24.9777 7.33205 25.2037 7.09352C25.4298 6.86018 25.7688 6.86018 26.0411 7.09871C26.0976 7.15056 26.1541 7.20241 26.2055 7.25945C28.0755 9.14691 29.9455 11.0344 31.8155 12.9218C32.2368 13.347 32.2368 13.6322 31.8258 14.047C29.925 15.9656 28.0293 17.879 26.1284 19.7976C25.8253 20.1035 25.4965 20.145 25.2345 19.9116C25.0136 19.7146 24.9674 19.3931 25.1421 19.1494C25.214 19.0457 25.3065 18.9524 25.3938 18.8642C26.8836 17.3553 28.3786 15.8515 29.8736 14.3426C29.9352 14.2804 29.9969 14.213 30.1099 14.0937C29.9455 14.0937 29.8428 14.0937 29.74 14.0937C22.1624 14.0937 19.2649 14.0937 11.6872 14.0937C11.3225 14.0937 11.0245 14.0056 10.8652 13.6426V13.3885V13.3937Z" fill="#FF9896"/>
</g>
<defs>
<clipPath id="clip0_219_236">
<rect width="43" height="27" fill="white"/>
</clipPath>
</defs>
</svg>
