<svg width="112" height="26" viewBox="0 0 112 26" fill="none" xmlns="http://www.w3.org/2000/svg">
<g id="a" clip-path="url(#clip0_242_478)">
<g id="Group" filter="url(#filter0_d_242_478)">
<path id="Vector" d="M112 22.5102C112 23.7998 112 25.7905 109.315 25.7905C107.68 25.7905 107.018 24.9885 106.63 23.6627C105.192 25.1981 103.438 26 101.301 26C96.0451 26 92.04 21.9904 92.04 16.3366C92.04 10.6829 96.1637 6.60477 101.301 6.60477C103.365 6.60477 105.388 7.33819 106.63 8.90577C106.785 7.68475 107.954 6.81432 109.315 6.81432C112 6.81432 112 8.80099 112 10.0945V22.5143V22.5102ZM102.077 21.394C104.995 21.394 106.397 18.7424 106.397 16.3366C106.397 13.9309 105.036 11.2108 102.077 11.2108C99.1185 11.2108 97.639 13.9309 97.639 16.3366C97.639 18.7424 99.0408 21.394 102.077 21.394Z" fill="white"/>
<path id="Vector_2" d="M29.0529 16.3084V16.2399C29.0529 10.9448 33.1602 6.5806 38.9186 6.5806C41.763 6.5806 43.7656 7.34222 45.3431 8.65995C45.6945 8.938 46.185 9.55859 46.185 10.4613C46.185 11.779 45.0979 12.8146 43.7615 12.8146C43.0585 12.8146 42.5313 12.5366 42.2166 12.2948C41.2685 11.5694 40.2836 11.1181 38.8818 11.1181C36.2131 11.1181 34.3168 13.4392 34.3168 16.1714V16.2399C34.3168 19.0809 36.1763 21.3658 39.0902 21.3658C40.4961 21.3658 41.5832 20.8822 42.6008 20.0843C42.8828 19.8748 43.41 19.6007 44.0394 19.6007C45.3022 19.6007 46.2871 20.6042 46.2871 21.8493C46.2871 22.5425 45.9725 23.0945 45.5147 23.5096C43.9331 24.9281 41.9347 25.8993 38.845 25.8993C33.1929 25.8993 29.0488 21.6076 29.0488 16.3084H29.0529Z" fill="white"/>
<path id="Vector_3" d="M64.0569 23.0583C64.0569 24.513 62.8635 25.6897 61.3881 25.6897C59.9128 25.6897 58.7194 24.513 58.7194 23.0583V22.8528C57.4893 24.4123 55.9118 25.8308 53.2063 25.8308C49.1685 25.8308 46.8145 23.1993 46.8145 18.9399V9.34904C46.8145 7.8943 48.0078 6.71761 49.4832 6.71761C50.9585 6.71761 52.1519 7.8943 52.1519 9.34904V17.2756C52.1519 19.77 53.3452 21.0474 55.3805 21.0474C57.4157 21.0474 58.7153 19.766 58.7153 17.2756V9.34904C58.7153 7.8943 59.9087 6.71761 61.3841 6.71761C62.8594 6.71761 64.0528 7.8943 64.0528 9.34904V23.0583H64.0569Z" fill="white"/>
<path id="Vector_4" d="M64.8252 2.49442C64.8252 0.971172 66.1248 0.0362682 67.8086 0.0362682C69.4924 0.0362682 70.792 0.971172 70.792 2.49442V2.56293C70.792 4.08618 69.4924 5.05735 67.8086 5.05735C66.1248 5.05735 64.8252 4.08618 64.8252 2.56293V2.49442ZM65.1399 9.34904C65.1399 7.8943 66.3332 6.71761 67.8086 6.71761C69.2839 6.71761 70.4773 7.8943 70.4773 9.34904V23.0583C70.4773 24.513 69.2839 25.6897 67.8086 25.6897C66.3332 25.6897 65.1399 24.513 65.1399 23.0583V9.34904Z" fill="white"/>
<path id="Vector_5" d="M91.0064 23.0583C91.0064 24.513 89.813 25.6897 88.3376 25.6897C86.8623 25.6897 85.6689 24.513 85.6689 23.0583V22.8165C84.3693 24.5493 82.5793 25.8267 79.8043 25.8267C75.415 25.8267 71.2383 22.4337 71.2383 16.2359V16.1674C71.2383 9.96962 75.3456 6.57657 79.8043 6.57657C82.6488 6.57657 84.402 7.85803 85.6689 9.34501V2.63143C85.6689 1.17669 86.8623 0 88.3376 0C89.813 0 91.0064 1.17669 91.0064 2.63143V23.0583ZM76.5757 16.1674V16.2359C76.5757 19.3187 78.6845 21.3617 81.1734 21.3617C83.6623 21.3617 85.7384 19.3187 85.7384 16.2359V16.1674C85.7384 13.0846 83.6664 11.0415 81.1734 11.0415C78.6804 11.0415 76.5757 13.0484 76.5757 16.1674Z" fill="white"/>
<path id="Vector_6" d="M2.63193 19.7861V11.4324H2.44393C1.09119 11.4324 0 10.3565 0 9.02263C0 7.68878 1.09119 6.61283 2.44393 6.61283H2.63193V4.1305C2.63193 2.57502 3.91111 1.3137 5.48863 1.3137C7.06616 1.3137 8.34534 2.57502 8.34534 4.1305V6.61283H10.8628C12.2156 6.61283 13.3068 7.68878 13.3068 9.02263C13.3068 10.3565 12.2156 11.4324 10.8628 11.4324H8.34534V18.8593C8.34534 20.1569 8.90932 20.7855 10.1885 20.7855C10.3765 20.7855 10.7525 20.7492 10.8669 20.7492C12.1461 20.7492 13.2332 21.7889 13.2332 23.0825C13.2332 24.0818 12.5548 24.8999 11.766 25.1941C10.7116 25.6011 9.73487 25.7502 8.49655 25.7502C5.0023 25.7502 2.63193 24.38 2.63193 19.7821V19.7861Z" fill="white"/>
<g id="Group_2">
<path id="Vector_7" d="M20.3484 15.9659C20.9307 15.9659 21.4028 15.5004 21.4028 14.9262C21.4028 14.352 20.9307 13.8865 20.3484 13.8865C19.766 13.8865 19.2939 14.352 19.2939 14.9262C19.2939 15.5004 19.766 15.9659 20.3484 15.9659Z" fill="#EF6A6A"/>
<g id="Group_3">
<path id="Vector_8" d="M19.0651 18.5208C19.6475 18.5208 20.1196 18.0553 20.1196 17.4811C20.1196 16.9069 19.6475 16.4414 19.0651 16.4414C18.4828 16.4414 18.0107 16.9069 18.0107 17.4811C18.0107 18.0553 18.4828 18.5208 19.0651 18.5208Z" fill="#F69896"/>
<path id="Vector_9" d="M21.8523 18.5208C22.4346 18.5208 22.9067 18.0553 22.9067 17.4811C22.9067 16.9069 22.4346 16.4414 21.8523 16.4414C21.2699 16.4414 20.7979 16.9069 20.7979 17.4811C20.7979 18.0553 21.2699 18.5208 21.8523 18.5208Z" fill="#F69896"/>
</g>
<g id="Group_4">
<path id="Vector_10" d="M21.8523 13.4151C22.4346 13.4151 22.9067 12.9496 22.9067 12.3754C22.9067 11.8012 22.4346 11.3357 21.8523 11.3357C21.2699 11.3357 20.7979 11.8012 20.7979 12.3754C20.7979 12.9496 21.2699 13.4151 21.8523 13.4151Z" fill="#F69896"/>
<path id="Vector_11" d="M19.0651 13.4151C19.6475 13.4151 20.1196 12.9496 20.1196 12.3754C20.1196 11.8012 19.6475 11.3357 19.0651 11.3357C18.4828 11.3357 18.0107 11.8012 18.0107 12.3754C18.0107 12.9496 18.4828 13.4151 19.0651 13.4151Z" fill="#F69896"/>
</g>
<path id="Vector_12" d="M23.4011 15.9659C23.9834 15.9659 24.4555 15.5004 24.4555 14.9262C24.4555 14.352 23.9834 13.8865 23.4011 13.8865C22.8188 13.8865 22.3467 14.352 22.3467 14.9262C22.3467 15.5004 22.8188 15.9659 23.4011 15.9659Z" fill="#F69896"/>
<path id="Vector_13" d="M17.4343 15.9659C18.0166 15.9659 18.4887 15.5004 18.4887 14.9262C18.4887 14.352 18.0166 13.8865 17.4343 13.8865C16.852 13.8865 16.3799 14.352 16.3799 14.9262C16.3799 15.5004 16.852 15.9659 17.4343 15.9659Z" fill="#F69896"/>
</g>
</g>
</g>
<defs>
<filter id="filter0_d_242_478" x="-1.95" y="-1.95" width="123.68" height="37.68" filterUnits="userSpaceOnUse" color-interpolation-filters="sRGB">
<feFlood flood-opacity="0" result="BackgroundImageFix"/>
<feColorMatrix in="SourceAlpha" type="matrix" values="0 0 0 0 0 0 0 0 0 0 0 0 0 0 0 0 0 0 127 0" result="hardAlpha"/>
<feOffset dx="3.89" dy="3.89"/>
<feGaussianBlur stdDeviation="2.92"/>
<feColorMatrix type="matrix" values="0 0 0 0 0.376471 0 0 0 0 0.376471 0 0 0 0 0.376471 0 0 0 0.45 0"/>
<feBlend mode="normal" in2="BackgroundImageFix" result="effect1_dropShadow_242_478"/>
<feBlend mode="normal" in="SourceGraphic" in2="effect1_dropShadow_242_478" result="shape"/>
</filter>
<clipPath id="clip0_242_478">
<rect width="112" height="26" fill="white"/>
</clipPath>
</defs>
</svg>
